<svg width="3877" height="3853" viewBox="0 0 3877 3853" fill="none" xmlns="http://www.w3.org/2000/svg">
<g clip-path="url(#clip0)">
<rect width="3877" height="3853" fill="#74A408"/>
<path d="M828 1346.78V1511.83H1188.16C1385.59 1511.83 1545.89 1510.45 1544.51 1508.72C1542.08 1506.3 1014.67 1266.32 876.924 1204.17L828 1182.42V1346.78Z" fill="white"/>
<path d="M2697.86 1339.8C2511.19 1425.78 2351.58 1499.33 2343.25 1503.13C2333.19 1507.62 2448.04 1510.72 2688.84 1510.72L3049 1511.41V1346.36C3049 1255.9 3046.57 1181.31 3043.45 1182C3039.29 1183.04 2884.53 1253.83 2697.86 1339.8Z" fill="white"/>
<path d="M1247.5 1565.33C1097.95 1604.35 965.407 1711.05 901.217 1845.36C864.09 1924.44 855.069 1970.36 855.763 2079.47C855.763 2163.03 858.886 2183.06 877.275 2236.93C938.343 2412.68 1084.07 2542.17 1266.58 2582.91C1334.59 2598.1 1472.34 2593.62 1531.67 2575.31C1669.77 2531.46 1790.86 2427.18 1853.32 2298.39C1892.53 2215.52 1903.28 2167.18 1902.59 2071.88C1901.9 1972.09 1886.28 1906.83 1844.65 1824.65C1782.88 1702.76 1647.91 1596.06 1510.16 1561.53C1446.32 1545.3 1316.89 1547.03 1247.5 1565.33ZM1477.89 1730.38C1611.13 1764.91 1708.28 1867.12 1737.08 2001.09C1783.23 2222.08 1610.78 2432.36 1382.47 2432.36C1198.92 2432.36 1043.13 2288.03 1024.05 2100.88C1014.68 2004.2 1054.23 1899.92 1128.14 1825.34C1220.44 1734.18 1352.98 1697.92 1477.89 1730.38Z" fill="white"/>
<path d="M1393.23 1887.56C1331.46 1902.06 1273.87 1952.13 1248.19 2012.55C1231.19 2053.99 1232.92 2143.77 1252.01 2182.78C1272.13 2224.91 1315.16 2266.35 1358.53 2287.75C1400.86 2307.78 1487.95 2309.85 1530.63 2291.55C1569.14 2275.32 1620.15 2228.71 1640.27 2191.07C1664.21 2146.53 1664.21 2042.94 1640.27 1998.4C1592.74 1910.69 1490.38 1864.77 1393.23 1887.56Z" fill="white"/>
<path d="M2356.08 1565.41C2263.44 1589.93 2197.86 1628.95 2118.75 1707.33C2007.72 1817.13 1969.2 1910.71 1969.2 2071.96C1969.2 2232.18 2007.72 2325.06 2119.44 2436.59C2175.65 2493.22 2201.33 2512.55 2254.42 2538.8C2347.06 2584.03 2407.78 2596.46 2516.73 2592.66C2659.34 2587.14 2757.19 2545.01 2859.89 2444.53C2959.47 2347.85 3008.74 2239.77 3015.68 2106.83C3025.75 1924.86 2953.23 1759.12 2822.76 1661.06C2760.31 1615.14 2683.28 1575.77 2622.91 1561.96C2554.55 1545.39 2425.48 1547.8 2356.08 1565.41ZM2591.33 1729.43C2658.3 1747.04 2703.06 1773.28 2752.33 1821.62C2822.42 1892.06 2855.73 1972.86 2855.73 2076.45C2855.73 2272.92 2696.12 2431.76 2497.3 2432.45C2373.78 2432.45 2263.79 2370.98 2192.65 2262.22C2151.71 2200.06 2135.75 2135.49 2140.26 2051.24C2142.69 1992.2 2147.2 1974.59 2171.14 1924.52C2216.6 1829.22 2302.3 1758.09 2401.53 1731.15C2454.97 1716.65 2540.67 1715.62 2591.33 1729.43Z" fill="white"/>
<path d="M2374.12 1889.25C2283.22 1922.4 2231.52 1995.94 2231.52 2092.63C2232.21 2214.51 2320.34 2302.22 2442.83 2302.22C2573.29 2302.22 2661.77 2209.33 2654.13 2081.92C2647.19 1960.03 2560.8 1879.23 2440.4 1880.96C2416.46 1880.62 2386.96 1884.41 2374.12 1889.25Z" fill="white"/>
<path d="M1778.72 2525.95C1784.27 2539.77 1819.66 2628.16 1857.48 2721.73C1895.3 2816 1928.27 2893 1930.69 2893C1933.82 2893 1965.39 2824.63 2002.52 2741.07C2038.6 2658.2 2077.47 2569.81 2088.22 2545.29L2108.35 2501.44H1938.33H1768.66L1778.72 2525.95Z" fill="white"/>
</g>
<defs>
<clipPath id="clip0">
<rect width="3877" height="3853" fill="white"/>
</clipPath>
</defs>
</svg>
